<svg width="144" height="36" viewBox="0 0 144 36" fill="none" xmlns="http://www.w3.org/2000/svg">
<path d="M123.744 9.3445L125.015 10.3225C125.354 9.69826 125.63 9.13641 126.498 7.90866C124.846 8.59537 123.744 9.3445 123.744 9.3445Z" fill="#5A28C6"/>
<path d="M113.427 7.82546C113.406 7.53413 113.343 6.90985 113.258 6.68095C113.046 6.07748 112.199 4.66245 111.817 4.03817C111.796 3.99656 111.733 4.03817 111.754 4.07979L113.152 8.01274C113.194 7.99193 113.237 7.95031 113.258 7.9295C113.3 7.86708 113.364 7.84627 113.427 7.82546Z" fill="#5A28C6"/>
<path d="M111.965 9.24046C111.881 9.3237 111.732 9.24046 111.732 9.24046C111.732 9.24046 110.631 8.09595 110.419 7.9711C109.804 7.59653 107.919 7.34682 107.241 7.26358C107.199 7.26358 107.178 7.32601 107.22 7.32601C107.22 7.32601 111.669 9.61503 111.69 9.57341C111.775 9.46936 111.881 9.34451 111.965 9.24046Z" fill="#5A28C6"/>
<path d="M131.032 32.4012C131.371 32.6301 132.091 32.6093 132.494 32.5884L132.96 32.5052C133.002 32.5052 133.002 32.4428 132.981 32.4428C132.261 32.1306 129.422 30.5908 128.808 29.5295C128.681 29.3006 129.168 27.6983 129.168 27.6983L126.943 27.0324C126.943 27.0324 127.748 29.259 128.087 29.7168C128.575 30.4035 130.142 31.7977 131.032 32.4012Z" fill="#5A28C6"/>
<path d="M132.79 21.185C132.536 20.9977 132.515 21.185 131.815 22.9746C131.116 24.7434 129.21 27.0948 126.117 26.4497C126.223 26.5954 126.371 26.6994 126.54 26.8451C126.689 26.9908 127.324 27.4486 127.324 27.4486C127.324 27.4486 128.659 28.5931 129.909 28.8428C132.981 29.4463 134.294 26.0335 134.697 25.0139C134.951 24.3688 135.184 23.1203 135.226 22.3295C135.226 22.1838 135.226 21.7677 135.142 21.8509C134.845 22.163 134.442 22.1422 133.976 22.0174C133.531 21.9133 132.938 21.289 132.79 21.185Z" fill="#5A28C6"/>
<path d="M141.18 1.2081C140.904 0.875152 140.671 0.625441 140.353 0.458967C139.506 -0.0820734 138.32 -0.227738 136.434 0.479776C134.464 1.2081 132.939 2.18613 131.604 3.30983C127.473 6.47284 125.82 10.7179 125.82 10.7179C125.82 10.7179 126.562 11.1549 126.858 11.3006C127.557 11.696 128.659 12.3202 128.659 12.3202C128.659 12.3202 133.765 12.5699 137.303 10.4058C138.955 9.38613 141.391 5.39076 141.561 2.83122C141.646 2.20694 141.54 1.64509 141.18 1.2081Z" fill="#5A28C6"/>
<path d="M143.997 7.32601C143.955 6.63931 141.815 5.80694 141.604 6.26474C140.926 7.67977 139.888 9.86474 137.663 11.1133C139.697 10.5514 144.125 9.3237 143.997 7.32601Z" fill="#5A28C6"/>
<path d="M126.096 14.5052C123.32 15.8786 122.515 18.459 122.558 20.2486C122.579 20.748 122.642 21.2474 122.77 21.6636C122.939 22.2462 122.96 22.3503 123.193 22.8705C123.553 19.978 124.613 17.6266 126.604 16.1699C127.854 15.2543 128.913 15.0462 129.718 15.0462C130.015 15.0254 130.523 15.0671 130.608 15.1087C130.311 14.7341 128.723 13.1942 126.096 14.5052Z" fill="#5A28C6"/>
<path d="M132.324 16.5653C131.837 16.1075 131.688 16.0867 131.286 15.8578C130.672 15.7746 129.506 15.7538 128.256 16.3572C126.138 17.3977 125.058 19.2081 124.231 21.6844C123.914 22.6208 123.808 23.8069 123.829 23.8278C124.528 24.8474 124.846 25.4509 125.778 25.6798C128.468 26.3249 130.311 23.8902 131.053 22.2254C131.434 21.3515 132.049 19.6867 132.218 19.6035C132.515 19.437 133.108 20.3526 133.489 20.748C133.998 21.2474 134.4 21.4347 134.887 21.3306C136.222 21.0185 133.299 17.4601 132.324 16.5653Z" fill="#5A28C6"/>
<path d="M128.765 35.0439C128.235 34.6902 125.418 32.7341 124.973 31.652C124.698 31.0069 125.1 29.5503 124.973 28.8636C124.909 28.5514 124.634 27.4277 124.38 26.741C123.892 25.4509 122.431 23.0162 122.028 21.7052C121.965 21.4763 121.16 18.2925 122.96 15.9202C125.354 12.7572 127.6 13.0486 128.426 13.2983C127.918 12.5908 125.63 11.9873 124.846 11.4046C123.85 10.6555 122.282 9.03237 121.096 8.40809C120.799 8.24162 120.524 8.13757 120.227 8.05434C119.931 7.9711 119.613 7.99191 119.253 7.9711C118.723 7.9711 115.44 8.28324 113.957 12.2578C112.982 14.8798 113.766 16.0035 113.978 16.3572C114.041 16.4613 114.126 16.5653 114.232 16.6694C114.931 17.3977 116.351 18.459 116.414 19.541C116.435 20.0405 115.567 20.6439 115.482 21.1434C115.312 22.2462 116.16 24.6185 116.478 25.6798C116.817 26.741 118.13 29.8416 118.13 29.8416C118.109 29.5711 118.257 29.3214 118.321 29.2173C118.321 29.2173 118.808 29.4254 118.935 29.5711L119.041 29.7168C119.041 29.7168 119.02 29.6543 118.956 29.5503C118.66 28.9676 117.834 27.3445 117.473 26.5746C117.346 26.304 117.177 25.8879 117.028 25.5549C116.732 24.889 117.007 23.1827 117.325 22.5376C117.685 21.8301 118.639 21.6012 118.639 21.6012C118.639 21.6012 121.668 25.3468 122.346 26.7827C122.812 27.7815 122.96 30.0705 123.469 31.0486C123.935 31.9642 125.757 33.733 126.71 34.6486C127.091 35.0023 127.6 35.1896 128.129 35.148L128.723 35.1064C128.765 35.1064 128.786 35.0647 128.765 35.0439Z" fill="#5A28C6"/>
<path d="M113.491 16.9399C113.385 16.815 113.236 16.6278 113.194 16.5445C113.067 16.3156 112.686 15.6705 112.749 14.5676C112.707 14.0682 112.622 14.4636 112.622 14.5052C112.347 15.1711 112.368 16.5029 112.728 17.4601C113.109 18.4382 112.325 19.437 112.05 20.0405C111.817 20.5607 111.775 20.748 111.987 20.5191C112.325 20.2069 113.512 19.1249 113.724 18.7503C113.724 18.7503 113.957 18.4382 113.978 17.4601C113.808 17.2728 113.639 17.0856 113.491 16.9399Z" fill="#5A28C6"/>
<path d="M116.245 8.03354C116.944 7.67978 117.516 7.63817 117.283 7.65897C116.562 7.67978 115.715 7.78383 114.91 8.34568C114.889 8.36649 114.804 8.30406 114.698 8.22082C114.423 7.9503 113.808 7.76302 113.427 7.82545C112.728 7.92949 111.986 8.11678 111.287 9.17805C110.567 10.2809 109.317 13.9642 110.461 14.6301C110.842 14.8382 111.859 14.0266 112.749 13.4439C112.919 13.007 113.152 12.1538 113.385 11.5919C114.465 8.92834 115.609 8.42892 116.245 8.03354ZM113.088 9.19886C112.855 9.34452 112.241 9.511 112.092 9.19886C112.008 9.03238 112.431 8.78267 112.707 8.82429C112.855 8.86591 113.258 9.074 113.088 9.19886Z" fill="#5A28C6"/>
<path d="M7.48179 21.4517C8.12228 21.4517 8.6462 21.366 9.08293 21.2234C9.49046 21.0807 9.83981 20.8812 10.0728 20.6236C10.3057 20.3673 10.5095 20.0816 10.5969 19.7398C10.6843 19.3979 10.7425 19.084 10.7425 18.7131C10.7425 18.3416 10.6843 17.9716 10.5677 17.6863C10.4513 17.3724 10.2765 17.1157 10.0146 16.9152C9.75261 16.687 9.43227 16.5443 8.99574 16.431C8.5882 16.317 8.06409 16.26 7.45279 16.26H4.04675V21.4793H7.48179V21.4517ZM4.04675 8.41527V13.55H6.69591C7.24902 13.55 7.74394 13.4927 8.20967 13.4073C8.64639 13.3217 9.02474 13.179 9.31589 12.9795C9.60704 12.7797 9.84 12.523 9.98538 12.1816C10.131 11.8393 10.2181 11.4683 10.2181 10.9834C10.2181 10.4986 10.16 10.0992 10.0144 9.78532C9.86881 9.4716 9.69423 9.1863 9.43227 8.98663C9.17031 8.78695 8.82078 8.64449 8.41324 8.55924C8.00571 8.47399 7.51079 8.41621 6.95768 8.41621L4.04675 8.41527ZM6.92868 5.44839C8.23867 5.44839 9.34489 5.56243 10.2765 5.81932C11.2082 6.0476 11.9651 6.38974 12.5472 6.84629C13.1295 7.27406 13.566 7.81606 13.828 8.44369C14.0899 9.07131 14.2355 9.78438 14.2355 10.5547C14.2355 10.9824 14.1773 11.4106 14.0317 11.8099C13.9153 12.2093 13.7116 12.5802 13.4204 12.9507C13.1585 13.2923 12.8091 13.6354 12.3724 13.9199C11.9359 14.206 11.4408 14.4627 10.8586 14.6614C12.1686 14.9753 13.1585 15.4601 13.799 16.145C14.4393 16.8296 14.7596 17.7424 14.7596 18.8264C14.7596 19.625 14.614 20.3673 14.2939 21.08C13.9737 21.7656 13.5078 22.3636 12.8965 22.878C12.2852 23.3916 11.5283 23.7909 10.6551 24.0753C9.78181 24.3611 8.73378 24.503 7.59837 24.503H0.0585938V5.47662H6.92868V5.44839ZM23.522 10.7257C24.57 10.7257 25.5017 10.897 26.3459 11.2107C27.1902 11.5246 27.9179 12.0094 28.5292 12.6086C29.1405 13.2076 29.6062 13.9493 29.9265 14.805C30.2467 15.6609 30.4215 16.6307 30.4215 17.7149C30.4215 18.7996 30.2469 19.7686 29.9265 20.6245C29.6064 21.4804 29.1405 22.2219 28.5292 22.821C27.9179 23.4209 27.19 23.8763 26.3459 24.2196C25.5017 24.5333 24.57 24.7046 23.522 24.7046C22.474 24.7046 21.5425 24.5335 20.6692 24.2196C19.825 23.9059 19.0973 23.4209 18.4858 22.821C17.8745 22.2219 17.4088 21.481 17.0594 20.6245C16.7101 19.7686 16.5645 18.7996 16.5645 17.7149C16.5645 16.6307 16.7391 15.6609 17.0594 14.805C17.4088 13.9493 17.8745 13.2084 18.4858 12.6086C19.0973 12.0094 19.825 11.554 20.6692 11.2107C21.5133 10.8684 22.4741 10.7257 23.522 10.7257ZM23.522 21.9652C24.57 21.9652 25.3561 21.6237 25.88 20.9106C26.3749 20.1973 26.6369 19.1419 26.6369 17.7152C26.6369 16.3173 26.3749 15.262 25.88 14.5491C25.3851 13.836 24.5992 13.4941 23.522 13.4941C22.445 13.4941 21.6589 13.836 21.135 14.5491C20.64 15.262 20.3781 16.3173 20.3781 17.7152C20.3781 19.1137 20.64 20.1972 21.135 20.9106C21.6589 21.5943 22.445 21.9652 23.522 21.9652ZM44.8897 10.954V24.4757H42.6196C42.1533 24.4757 41.833 24.2759 41.7172 23.8479L41.4844 22.9066C41.1925 23.1633 40.9311 23.4202 40.6402 23.6197C40.349 23.8479 40.0289 24.0192 39.7085 24.1903C39.3884 24.3613 39.0093 24.4756 38.6315 24.5612C38.2531 24.6466 37.8164 24.7046 37.3797 24.7046C36.6228 24.7046 35.9533 24.5905 35.371 24.3329C34.7887 24.0762 34.294 23.7337 33.9155 23.2783C33.5371 22.821 33.2168 22.279 33.013 21.6513C32.8092 21.0239 32.6929 20.3392 32.6929 19.5695V10.983H36.3899V19.5695C36.3899 20.3106 36.5646 20.9102 36.914 21.3096C37.2633 21.737 37.7872 21.9372 38.4859 21.9372C39.01 21.9372 39.5051 21.8231 39.9415 21.5949C40.4072 21.3666 40.8439 21.0813 41.2515 20.6819V10.9546L44.8897 10.954ZM51.3522 12.523C51.6436 12.2663 51.9054 12.0094 52.2255 11.8099C52.5459 11.61 52.8378 11.4106 53.1863 11.2393C53.5355 11.069 53.8858 10.954 54.2634 10.8686C54.6419 10.7829 55.0784 10.7257 55.5152 10.7257C56.272 10.7257 56.9419 10.8398 57.5238 11.0967C58.1059 11.3535 58.6009 11.6966 58.9794 12.1521C59.3869 12.6086 59.6783 13.1506 59.8817 13.7782C60.0856 14.4059 60.1732 15.0913 60.1732 15.8606V24.4752H56.4758V15.8888C56.4758 15.1473 56.3014 14.5483 55.9517 14.1488C55.6026 13.721 55.0784 13.5214 54.3792 13.5214C53.8551 13.5214 53.36 13.635 52.9236 13.8351C52.4575 14.0633 52.0217 14.3486 51.6142 14.748V24.4754H47.917V10.9533H50.1871C50.6536 10.9533 50.9737 11.1531 51.1193 11.5809L51.3522 12.523ZM77.494 24.4757H73.8252V13.55H67.7126V20.5959C67.7126 20.9667 67.7994 21.2806 67.9738 21.4793C68.1484 21.7084 68.4103 21.8216 68.76 21.8216C68.9344 21.8216 69.0802 21.7932 69.2263 21.7644C69.3423 21.736 69.4593 21.679 69.5467 21.6216C69.6339 21.564 69.7213 21.5363 69.8081 21.4784C69.8951 21.4507 69.9542 21.4214 70.0412 21.4214C70.1572 21.4214 70.2452 21.4498 70.3028 21.5068C70.3616 21.564 70.4484 21.6494 70.5068 21.7635L71.613 23.5037C71.1181 23.9027 70.5361 24.1884 69.8956 24.3871C69.2551 24.587 68.5862 24.7012 67.887 24.7012C67.2755 24.7012 66.7228 24.6158 66.2275 24.4451C65.7325 24.2738 65.325 24.0171 65.0048 23.6742C64.6845 23.3325 64.4227 22.9331 64.2485 22.4768C64.074 22.0196 63.9866 21.4774 63.9866 20.8794V13.5765H62.6766C62.4728 13.5765 62.3282 13.5189 62.1821 13.4054C62.0363 13.2914 61.9781 13.0915 61.9781 12.8634V11.4371L64.1907 11.0378L64.9472 7.52869C65.0346 7.12934 65.3258 6.92929 65.7623 6.92929H67.6838V11.0372H77.4942L77.494 24.4757ZM78.0761 7.07458C78.0761 7.36063 78.0171 7.64499 77.9015 7.93048C77.7851 8.18699 77.6098 8.41527 77.4066 8.6157C77.2026 8.81556 76.9409 8.95727 76.6789 9.10067C76.417 9.24332 76.0966 9.27099 75.7765 9.27099C75.4853 9.27099 75.1946 9.21396 74.903 9.10067C74.6119 8.98663 74.3789 8.81462 74.1753 8.6157C73.9714 8.41583 73.7968 8.18793 73.6806 7.93048C73.5646 7.67416 73.506 7.3883 73.506 7.07458C73.506 6.76067 73.5648 6.47537 73.6806 6.21867C73.7968 5.96273 73.9723 5.70509 74.1753 5.5056C74.3793 5.30574 74.6119 5.13467 74.903 5.02063C75.1946 4.90696 75.4563 4.85031 75.7765 4.85031C76.0966 4.85031 76.3885 4.90733 76.6789 5.02063C76.9703 5.13467 77.203 5.30668 77.4066 5.5056C77.6106 5.70546 77.7851 5.93337 77.9015 6.21867C78.0179 6.47537 78.0761 6.76067 78.0761 7.07458ZM89.4296 16.1173C89.4296 15.7458 89.3711 15.3758 89.2839 15.0325C89.1679 14.6912 89.0223 14.3773 88.789 14.1196C88.556 13.8627 88.2942 13.6632 87.9447 13.492C87.5954 13.3493 87.1878 13.2639 86.7219 13.2639C85.8486 13.2639 85.15 13.5198 84.655 14.005C84.1601 14.4902 83.84 15.2032 83.6654 16.116H89.4296V16.1173V16.1173ZM83.6072 18.2569C83.7232 19.5121 84.1021 20.454 84.7134 21.0523C85.3251 21.6513 86.14 21.9366 87.1298 21.9366C87.6245 21.9366 88.0905 21.8787 88.4396 21.7654C88.8182 21.6513 89.1383 21.5087 89.4289 21.366C89.7206 21.2234 89.953 21.0807 90.1854 20.9667C90.4183 20.8526 90.6513 20.7956 90.8547 20.7956C91.146 20.7956 91.3492 20.9097 91.5238 21.1093L92.6006 22.4224C92.2217 22.8789 91.7855 23.2497 91.2908 23.5342C90.7961 23.8203 90.33 24.0478 89.8065 24.2196C89.3117 24.3907 88.787 24.5049 88.2637 24.5612C87.7396 24.619 87.2441 24.6466 86.7498 24.6466C85.7889 24.6466 84.8869 24.504 84.0416 24.1903C83.1974 23.8763 82.4697 23.42 81.8586 22.821C81.2471 22.2219 80.7522 21.4526 80.4032 20.5673C80.0544 19.6544 79.8791 18.6276 79.8791 17.4294C79.8791 16.5159 80.0249 15.6323 80.345 14.8336C80.6654 14.0063 81.1019 13.3217 81.685 12.694C82.2665 12.095 82.9659 11.6101 83.8094 11.2679C84.6537 10.9256 85.5851 10.7257 86.6332 10.7257C87.5064 10.7257 88.3215 10.8686 89.0784 11.1253C89.8347 11.3818 90.4748 11.8099 90.9997 12.3233C91.5238 12.8367 91.9605 13.4929 92.2517 14.263C92.5434 15.0333 92.6882 15.8892 92.6882 16.8874C92.6882 17.1729 92.6882 17.3724 92.6592 17.5427C92.6304 17.7139 92.6008 17.8566 92.5136 17.9706C92.455 18.0843 92.3678 18.1417 92.2517 18.1987C92.1357 18.2271 92.0187 18.2559 91.8443 18.2559L83.6072 18.2569ZM103.607 13.721C103.519 13.8637 103.403 13.9777 103.315 14.0349C103.228 14.092 103.082 14.1204 102.908 14.1204C102.733 14.1204 102.559 14.0633 102.355 13.9777C102.18 13.8923 101.947 13.8067 101.714 13.6917C101.481 13.578 101.219 13.4918 100.928 13.4064C100.636 13.3207 100.287 13.2637 99.8796 13.2637C99.2681 13.2637 98.8318 13.3774 98.483 13.6345C98.1628 13.8627 97.9881 14.2051 97.9881 14.576C97.9881 14.8613 98.0755 15.0608 98.2794 15.2606C98.454 15.4317 98.7159 15.6028 99.0361 15.7456C99.3564 15.8883 99.7054 16.0023 100.084 16.1171C100.463 16.2308 100.87 16.3731 101.307 16.5157C101.714 16.6593 102.121 16.8298 102.529 17.0007C102.908 17.1717 103.285 17.4 103.577 17.6861C103.897 17.9716 104.13 18.2853 104.333 18.6846C104.508 19.084 104.625 19.5404 104.625 20.0825C104.625 20.7386 104.509 21.3376 104.246 21.9082C104.013 22.4502 103.635 22.935 103.169 23.3344C102.703 23.7339 102.121 24.0476 101.394 24.2759C100.695 24.504 99.8796 24.618 98.9489 24.618C98.483 24.618 98.0171 24.5896 97.5517 24.504C97.0858 24.4185 96.6499 24.3043 96.2124 24.1618C95.8048 24.0192 95.3973 23.8203 95.0481 23.6197C94.6694 23.42 94.3792 23.1923 94.0873 22.9644L94.9316 21.6237C95.0188 21.4526 95.1643 21.3376 95.3101 21.2522C95.4559 21.1665 95.6592 21.1093 95.8922 21.1093C96.1252 21.1093 96.3287 21.1667 96.5037 21.2806C96.6783 21.3946 96.911 21.5087 97.1442 21.6227C97.3777 21.7364 97.6391 21.8787 97.9591 21.9643C98.2796 22.0783 98.6585 22.1354 99.1529 22.1354C99.502 22.1354 99.8222 22.1069 100.085 22.0217C100.347 21.9363 100.551 21.8218 100.726 21.7072C100.9 21.5646 101.017 21.4219 101.075 21.2508C101.162 21.0798 101.191 20.9093 101.191 20.7087C101.191 20.4234 101.104 20.1667 100.9 19.9676C100.696 19.7677 100.463 19.6252 100.143 19.4826C99.8226 19.3399 99.474 19.2259 99.0664 19.1109C98.6589 18.9972 98.2514 18.8826 97.8438 18.74C97.4363 18.5973 97.0288 18.4263 96.6212 18.2552C96.2137 18.0553 95.8647 17.8278 95.5732 17.5141C95.2531 17.228 95.0201 16.858 94.8169 16.4297C94.6129 16.0023 94.5254 15.488 94.5254 14.8604C94.5254 14.2907 94.6414 13.7764 94.8455 13.2637C95.0785 12.7501 95.3986 12.3224 95.8647 11.923C96.3011 11.5513 96.8542 11.2374 97.5246 11.0095C98.1936 10.7812 98.9512 10.668 99.8245 10.668C100.814 10.668 101.688 10.8383 102.503 11.1524C103.318 11.4663 103.958 11.8652 104.482 12.3796L103.607 13.721Z" fill="#5A28C6"/>
<path d="M0.75707 28.0413C0.815261 28.0413 0.873452 28.0413 0.931836 28.0413C0.99022 28.0413 1.01922 28.0697 1.04822 28.0697C1.07722 28.0974 1.10641 28.0974 1.1646 28.1269C1.1938 28.1553 1.2228 28.2124 1.28099 28.241L5.47291 33.4899C5.44391 33.3762 5.44391 33.2332 5.44391 33.119C5.44391 33.0047 5.44391 32.8907 5.44391 32.7766V28.0131H6.7539V35.8863H5.99702C5.88064 35.8863 5.79325 35.8579 5.70587 35.8284C5.61848 35.8007 5.56029 35.7147 5.47291 35.6287L1.28099 30.4084C1.28099 30.5224 1.30999 30.6367 1.30999 30.7507C1.30999 30.8644 1.30999 30.9788 1.30999 31.0644V35.8854H0V28.0413H0.75707ZM21.5425 28.0413V29.2109H17.9909V31.3791H20.7856V32.4917H17.9909V34.716H21.5425V35.8863H16.5063V28.0413H21.5425ZM36.622 28.0413V29.2393H34.2058V35.886H32.7213V29.2393H30.3051V28.0413H36.622ZM44.9771 28.0413H46.2294C46.3454 28.0413 46.4624 28.0697 46.5496 28.1269C46.637 28.1839 46.6952 28.2696 46.7244 28.355L48.0925 33.0333C48.1208 33.147 48.1507 33.2616 48.1791 33.4043C48.2081 33.5469 48.2381 33.6896 48.2665 33.832C48.2953 33.6894 48.3253 33.546 48.3537 33.4043C48.3827 33.2616 48.4409 33.1476 48.4701 33.0333L50.0421 28.355C50.0711 28.2696 50.1294 28.1839 50.2166 28.1269C50.304 28.0697 50.4206 28.0133 50.537 28.0133H50.9735C51.0895 28.0133 51.2065 28.0409 51.2938 28.0983C51.381 28.1559 51.4394 28.2415 51.4682 28.327L53.0406 33.0045C53.1278 33.2326 53.1861 33.4893 53.2445 33.775C53.2733 33.6322 53.3035 33.4893 53.3319 33.3762C53.3607 33.2622 53.3907 33.1195 53.4189 33.0045L54.7873 28.327C54.8163 28.2415 54.8745 28.1559 54.9619 28.0983C55.049 28.0409 55.1658 28.0133 55.282 28.0133H56.4464L53.9714 35.8579H52.6321L50.8854 30.4952C50.8562 30.4379 50.8264 30.3525 50.8264 30.2669C50.798 30.1812 50.768 30.0958 50.768 30.0102C50.739 30.0958 50.7096 30.1812 50.7096 30.2669C50.7096 30.3525 50.6512 30.4095 50.6512 30.4952L48.8753 35.8579H47.4486L44.9771 28.0413ZM73.1273 31.9779C73.1273 32.5483 73.0401 33.0904 72.8361 33.5753C72.6322 34.0603 72.3704 34.4883 72.0211 34.859C71.6719 35.2297 71.235 35.4866 70.7401 35.6863C70.2454 35.8862 69.6922 36 69.0802 36C68.4687 36 67.916 35.8863 67.4207 35.6863C66.9257 35.4866 66.489 35.2013 66.1397 34.859C65.7907 34.4873 65.4992 34.088 65.3246 33.5753C65.1208 33.0904 65.0334 32.5483 65.0334 31.9779C65.0334 31.4077 65.1208 30.8655 65.3246 30.3813C65.5286 29.8963 65.7907 29.4678 66.1397 29.0976C66.489 28.7267 66.9257 28.47 67.4207 28.2703C67.9154 28.0705 68.4687 27.9564 69.0802 27.9564C69.6922 27.9564 70.2444 28.0705 70.7401 28.2703C71.2352 28.4702 71.6719 28.7553 72.0211 29.0976C72.3704 29.4396 72.6616 29.8679 72.8361 30.3529C73.0107 30.8655 73.1273 31.3789 73.1273 31.9779ZM71.5845 31.9779C71.5845 31.5505 71.526 31.1506 71.4098 30.8083C71.2938 30.466 71.1184 30.1807 70.9156 29.9526C70.7117 29.7243 70.4207 29.5246 70.1292 29.4106C69.8086 29.2965 69.4601 29.2107 69.0811 29.2107C68.7022 29.2107 68.3246 29.2685 68.0331 29.4106C67.7128 29.5243 67.4514 29.7243 67.2468 29.9526C67.0139 30.1807 66.8681 30.4946 66.7521 30.8083C66.6361 31.1506 66.5779 31.5216 66.5779 31.9779C66.5779 32.4343 66.6363 32.8052 66.7521 33.1476C66.8681 33.4899 67.0438 33.7752 67.2468 34.004C67.4798 34.2323 67.7416 34.4314 68.0331 34.546C68.3538 34.6597 68.7022 34.7459 69.0811 34.7459C69.4601 34.7459 69.8086 34.6889 70.1292 34.546C70.4491 34.4322 70.7109 34.2323 70.9156 34.004C71.1194 33.7752 71.2942 33.4905 71.4098 33.1476C71.5262 32.7766 71.5845 32.4057 71.5845 31.9779ZM83.9857 32.8338V35.8869H82.5013V28.0413H84.946C85.4993 28.0413 85.9652 28.0985 86.3434 28.2124C86.7217 28.3264 87.042 28.4691 87.304 28.6689C87.5656 28.8688 87.7402 29.0967 87.8571 29.382C87.9733 29.668 88.0317 29.9526 88.0317 30.2955C88.0317 30.5514 88.0027 30.8091 87.9153 31.0366C87.8283 31.2647 87.7115 31.493 87.5669 31.6642C87.4208 31.8353 87.2466 32.0357 87.0132 32.1778C86.7803 32.3206 86.5471 32.4339 86.2569 32.5194C86.4315 32.6334 86.6061 32.7761 86.7518 32.9767L88.7605 35.8577H87.4208C87.3048 35.8577 87.1876 35.8295 87.1004 35.7723C87.0132 35.7151 86.926 35.6586 86.8673 35.544L85.1789 33.0337C85.1208 32.9481 85.0334 32.8626 84.975 32.8338C84.8878 32.8062 84.8004 32.7768 84.6548 32.7768H83.9853L83.9857 32.8338ZM83.9857 31.7781H84.9176C85.2093 31.7781 85.4417 31.7497 85.6454 31.6642C85.8494 31.607 86.0243 31.493 86.1695 31.3787C86.3151 31.2645 86.4025 31.122 86.4611 30.951C86.5198 30.7799 86.5481 30.6094 86.5481 30.409C86.5481 30.0096 86.4025 29.6959 86.1407 29.496C85.8794 29.2962 85.4718 29.1823 84.9187 29.1823H83.9579V31.7781H83.9857V31.7781ZM99.3854 31.3219H99.7338C99.8796 31.3219 99.9958 31.2935 100.083 31.2641C100.171 31.2363 100.257 31.1785 100.316 31.0929L102.529 28.3543C102.616 28.2406 102.703 28.1546 102.82 28.1262C102.908 28.069 103.053 28.069 103.199 28.069H104.48L101.773 31.3208C101.685 31.4344 101.598 31.5206 101.54 31.5769C101.452 31.6349 101.365 31.6909 101.278 31.748C101.394 31.8052 101.511 31.862 101.598 31.9192C101.685 31.9762 101.802 32.0903 101.889 32.2329L104.655 35.9129H103.345C103.17 35.9129 103.024 35.8852 102.937 35.8273C102.85 35.7702 102.791 35.7136 102.704 35.5992L100.434 32.7179C100.347 32.6323 100.288 32.5469 100.172 32.5181C100.085 32.4904 99.9395 32.461 99.7933 32.461H99.3272V35.8839H97.8429V28.0413H99.3272V31.3226L99.3854 31.3219Z" fill="#5A28C6"/>
<path d="M47.0436 0V0.8273H45.4135V5.36316H44.3939V0.8273H42.7344V0H47.0436ZM53.5938 5.36297H52.5747V3.02372H50.013V5.36297H48.9934V0H50.013V2.31065H52.5747V0H53.5938V5.36297ZM59.3868 0V0.798699H56.9706V2.28204H58.8919V3.05232H56.9706V4.56427H59.3868V5.36297H55.9226V0H59.3868Z" fill="#5A28C6"/>
</svg>