<?xml version="1.0" encoding="UTF-8"?><svg id="Layer_2" xmlns="http://www.w3.org/2000/svg" viewBox="0 0 2011.93 1825.08"><defs><style>.cls-1{fill:#ffb024;}.cls-2{fill:#fffaf5;}.cls-3{fill:#260486;}</style></defs><g id="Layer_2-2"><g><rect class="cls-3" x="0" y="0" width="2011.93" height="1825.08" rx="200.9" ry="200.9"/><g><path class="cls-2" d="M426.19,264.53c49.06,0,81.02,15.75,112.97,39.62l-28.81,53.11c-22.95-17.56-48.16-30.61-83.72-30.61-63.91,0-102.62,44.11-102.62,100.37s38.71,100.38,102.62,100.38c35.57,0,60.77-13.05,83.72-30.61l28.81,53.11c-31.95,23.86-63.91,39.62-112.97,39.62-106.68,0-172.84-74.73-172.84-162.5s66.17-162.49,172.84-162.49Z"/><path class="cls-2" d="M822.96,264.54c90.02,0,163.38,72.92,163.38,162.48s-73.36,162.49-163.38,162.49-163.83-72.92-163.83-162.49,73.36-162.48,163.83-162.48Zm0,261.05c51.76,0,94.51-40.96,94.51-98.57s-42.75-98.56-94.51-98.56-94.97,40.95-94.97,98.56,42.75,98.57,94.97,98.57Z"/><path class="cls-2" d="M1245.54,583.81h-117.36V270.24h117.36c102.59,0,166.64,70.33,166.64,156.78s-64.05,156.79-166.64,156.79Zm0-258.48h-47.93v203.37h47.93c59.58,0,96.76-45.69,96.76-101.69s-37.18-101.69-96.76-101.69Z"/><g><g><rect class="cls-2" x="1543.06" y="270.26" width="215.52" height="56.9"/><rect class="cls-2" x="1543.06" y="526.89" width="215.52" height="56.9"/></g><rect class="cls-2" x="1543.06" y="398.58" width="172.32" height="56.9"/></g></g><g><path class="cls-2" d="M426.19,750.05c49.06,0,81.02,15.75,112.97,39.62l-28.81,53.11c-22.95-17.56-48.16-30.61-83.72-30.61-63.91,0-102.62,44.11-102.62,100.37s38.71,100.38,102.62,100.38c35.57,0,60.77-13.05,83.72-30.61l28.81,53.11c-31.95,23.86-63.91,39.62-112.97,39.62-106.68,0-172.84-74.73-172.84-162.5s66.17-162.49,172.84-162.49Z"/><path class="cls-2" d="M822.96,750.06c90.02,0,163.38,72.92,163.38,162.48s-73.36,162.49-163.38,162.49-163.83-72.92-163.83-162.49,73.36-162.48,163.83-162.48Zm0,261.05c51.76,0,94.51-40.96,94.51-98.57s-42.75-98.56-94.51-98.56-94.97,40.95-94.97,98.56,42.75,98.57,94.97,98.57Z"/><path class="cls-2" d="M1245.54,1069.32h-117.36v-313.57h117.36c102.59,0,166.64,70.33,166.64,156.78s-64.05,156.79-166.64,156.79Zm0-258.48h-47.93v203.37h47.93c59.58,0,96.76-45.69,96.76-101.69s-37.18-101.69-96.76-101.69Z"/><g><g><rect class="cls-2" x="1543.06" y="755.78" width="215.52" height="56.9"/><rect class="cls-2" x="1543.06" y="1012.41" width="215.52" height="56.9"/></g><rect class="cls-2" x="1543.06" y="884.09" width="172.32" height="56.9"/></g></g><g><path class="cls-1" d="M312.79,1455.6c8.09,27.85,27.85,43.12,57.04,43.12,24.7,0,47.17-8.97,47.17-32.33,0-12.13-6.74-23.36-36.38-33.69l-34.13-11.68c-69.62-23.8-79.95-67.37-79.95-93.42,0-56.58,44.46-91.62,106-91.62,48.5,0,86.23,23.36,105.09,68.71l-56.58,28.3c-13.48-31.89-35.49-35.49-48.5-35.49-21.56,0-38.18,8.53-38.18,29.2,0,8.08,2.25,22.9,33.69,33.69l33.24,11.68c70.5,22,83.09,64.22,83.53,92.97,0,66.02-57.49,95.22-112.73,95.22-60.18,0-114.98-34.14-121.27-92.52l61.98-12.13Z"/><path class="cls-1" d="M793.33,1554.92v-122.28h-119.14v122.28h-69.43v-313.53h69.43v136.16h119.14v-136.16h69.42v313.53h-69.42Z"/><path class="cls-1" d="M1073.95,1554.9h-69.42v-313.5h69.42v313.5Z"/><path class="cls-1" d="M1215.75,1554.92v-313.47h137.48c64.94,0,100.76,47.47,100.76,102.55s-36.28,100.31-100.76,100.31h-68.06v110.61h-69.42Zm128.52-165.25c24.63,0,39.87-19.25,39.87-46.12s-15.23-47.03-39.87-47.03h-59.1v93.15h59.1Z"/><polygon class="cls-1" points="1761.11 1398.05 1604.49 1241.42 1563.14 1282.77 1678.55 1398.18 1563.14 1513.59 1604.49 1554.94 1761.11 1398.31 1760.98 1398.18 1761.11 1398.05"/></g></g></g></svg>